<?xml version="1.0" encoding="UTF-8" standalone="no"?>
<!-- Created with Inkscape (http://www.inkscape.org/) -->

<svg
   version="1.1"
   id="svg2"
   xml:space="preserve"
   width="743.12408"
   height="702.75848"
   viewBox="0 0 743.12408 702.75849"
   sodipodi:docname="logo.svg"
   inkscape:version="1.1.2 (0a00cf5339, 2022-02-04)"
   inkscape:export-filename="/home/fernando/Proyectos/PROGRAMACION/GITHUB-WEBS/WEB-AULICHA/aulicha/img/logo.png"
   inkscape:export-xdpi="200"
   inkscape:export-ydpi="200"
   xmlns:inkscape="http://www.inkscape.org/namespaces/inkscape"
   xmlns:sodipodi="http://sodipodi.sourceforge.net/DTD/sodipodi-0.dtd"
   xmlns="http://www.w3.org/2000/svg"
   xmlns:svg="http://www.w3.org/2000/svg"
   xmlns:rdf="http://www.w3.org/1999/02/22-rdf-syntax-ns#"
   xmlns:cc="http://creativecommons.org/ns#"
   xmlns:dc="http://purl.org/dc/elements/1.1/"><metadata
     id="metadata8"><rdf:RDF><cc:Work
         rdf:about=""><dc:format>image/svg+xml</dc:format><dc:type
           rdf:resource="http://purl.org/dc/dcmitype/StillImage" /></cc:Work></rdf:RDF></metadata><defs
     id="defs6"><clipPath
       clipPathUnits="userSpaceOnUse"
       id="clipPath18"><path
         d="M 0,660 H 660 V 0 H 0 Z"
         id="path16"
         inkscape:connector-curvature="0" /></clipPath></defs><sodipodi:namedview
     pagecolor="#ffffff"
     bordercolor="#666666"
     borderopacity="1"
     objecttolerance="10"
     gridtolerance="10"
     guidetolerance="10"
     inkscape:pageopacity="0"
     inkscape:pageshadow="2"
     inkscape:window-width="1597"
     inkscape:window-height="991"
     id="namedview4"
     showgrid="false"
     inkscape:zoom="0.37926637"
     inkscape:cx="47.460048"
     inkscape:cy="379.68039"
     inkscape:window-x="26"
     inkscape:window-y="23"
     inkscape:window-maximized="0"
     inkscape:current-layer="g10"
     inkscape:pagecheckerboard="0"
     inkscape:snap-bbox="true"
     inkscape:snap-intersection-paths="true"
     inkscape:bbox-nodes="true"><sodipodi:guide
       position="-3.4151885e-06,704.75849"
       orientation="0,743.12408"
       id="guide8722" /><sodipodi:guide
       position="743.12408,704.75849"
       orientation="777.42249,0"
       id="guide8724" /><sodipodi:guide
       position="743.12408,-72.663998"
       orientation="0,-743.12408"
       id="guide8726" /><sodipodi:guide
       position="-3.4151885e-06,-72.663998"
       orientation="-777.42249,0"
       id="guide8728" /></sodipodi:namedview><g
     id="g10"
     inkscape:groupmode="layer"
     inkscape:label="man-desktop-computer-publicdomainvectors.org"
     transform="matrix(1.3333333,0,0,-1.3333333,-72.037533,875.49731)"><g
       id="g8720"
       transform="matrix(0.95117066,0,0,0.95117066,519.30029,-117.3384)"><path
         fill="#4a251e"
         d="m -115.35796,813.49576 c 48.805499,1.90155 75.253499,-9.66975 105.211499,-45.1785 8.4675,-1.3215 16.5645,-3.36 23.9325,-7.9065 38.8965,-24.0015 35.028,-86.241 -17.5005,-98.0205 -10.1655,-22.9575 -20.2155,-32.721 -33.258,-51.6975 47.046,-22.5135 67.362,-65.8815 89.7105,-110.559 7.8345,-15.663 15.831,-31.2165 23.4375,-46.992 14.553,-30.1815 34.081501,-59.064 7.3395,-92.5725 -18.336,-22.974 -43.0575,-21.834 -69.7875,-24.5115 l -52.041,-5.5485 c -3.9105,-5.7705 -7.1055,-12.2055 -10.5825,-18.261 l -19.128,-32.8455 c -3.345,-5.7105 -7.8405,-15.48 -12.8505,-19.53 -4.7235,-0.6675 -10.11,-0.036 -14.9175,-0.0225 l -152.011499,0.0225 c -6.9465,10e-4 -44.382,-0.8385 -48.186,0.546 -11.8005,4.2915 -2.5125,17.2995 1.3395,23.7315 5.7855,9.663 18.9585,28.554 22.71,38.025 -26.679,-10.182 -23.202,-1.62 -46.191,-1.545 -30.711,0.099 -61.506,-1.089 -92.4405,-0.9 -5.079,0.03 -10.11,-0.663 -15.216,-0.5205 -40.2915,1.119 -64.902,30.666 -63.2958,70.1625 0.52725,12.9645 6.94515,23.439 10.96395,35.4375 l 39.1854,118.452 c 9.14445,27.588 16.83345,40.2 39.37395,60.597 37.458,33.897 88.449,45.8805 137.9775,43.4865 23.343,34.962 14.8395,19.812 45.474,21.486 l 0.579,0.0345 c -2.286,3.6585 -5.244,6.6585 -6.9915,10.6905 -8.481,19.5585 -1.248,52.3245 20.508,61.461 2.277,35.1705 36.0105,61.49565 67.896,69.23325 6.1995,1.5042 12.4755,2.22525 18.759,3.24525 z m -12.657,-427.461 c -22.6125,0.027 -62.0475,-3.918 -84.414,-10.944 3.282,-6.4305 12.951,-43.7985 5.0985,-47.9055 -5.454,-2.853 -31.689,16.179 -36.6015,19.9515 -16.1895,-24.465 -32.775,-51.852 -47.6415,-77.397 h 74.895 131.321999 c 4.257,6.951 8.2125,14.0805 12.36,21.0975 l 28.1505,48.006 c 6.522,11.3205 12.333,23.418 19.878,34.083 -36.537,6.96 -63.7755,14.628 -103.046999,13.1085 z m -336.4992,-40.92 c -0.16365,3.2025 -2.46105,7.4295 -3.5076,10.5525 -9.9945,29.82 4.95975,61.464 15.65295,88.9365 11.30085,29.034 23.00685,57.9795 32.95785,87.5145 3.6465,10.827 5.5305,21.45 12.243,30.9945 31.083,44.2005 70.656,58.7955 122.0505,61.491 4.2135,0.2205 8.8185,0.0255 12.9405,0.741 l 0.237,0.942 c -0.4995,3.489 -1.1505,7.0875 -1.257,10.6125 -42.15,2.394 -88.9605,-12.3105 -120.444,-40.353 -22.161,-19.74 -28.236,-33.702 -37.1805,-60.2895 l -39.36285,-118.0305 c -2.0586,-6.1335 -5.298,-11.814 -7.2003,-17.994 -5.8188,-18.9045 -1.1151,-40.9215 12.87045,-55.1175 z m 201.0522,285.684 c 4.7955,-22.1505 8.4195,-51.933 11.559,-75.0015 4.566,2.328 8.2665,6.0855 12.801,8.562 -4.2555,9.333 -4.698,23.136 -6.348,33.312 -2.892,17.829 -11.0265,31.299 7.284,43.869 -1.437,4.6545 -0.2025,5.868 4.0695,7.5105 0.1575,3.5865 -1.3425,8.0865 -2.301,11.5485 -5.637,0.438 -22.4505,-23.889 -27.0645,-29.8005 z m -53.64,-295.866 c 0.468,3.0855 -0.222,6.69 -0.45,9.8145 -1.098,14.952 1.653,29.4225 3.0525,44.2575 l 2.583,26.7465 c 1.515,16.9035 0.936,32.253 17.7885,41.46 l 0.3045,0.648 0.1365,-0.2295 -0.111,0.489 c -30.6375,-5.2995 -25.83,-16.071 -29.2815,-45.87 -1.9425,-16.7685 -4.3995,-34.0185 -5.112,-50.895 -0.438,-10.347 3.2925,-19.377 11.0895,-26.421 z m 10.9395,182.421 c -6.2835,-4.2435 -12.6915,-8.28 -19.008,-12.468 2.79,-5.0505 6.1905,-9.8205 9.411,-14.6025 l 15.753,-22.947 c 2.049,0.306 4.194,0.5145 6.2085,0.987 6.282,1.3755 12.5925,2.7015 18.9435,3.7245 -2.898,5.6115 -28.6755,44.304 -31.308,45.306 z m 113.877,225.6765 c 2.484,-0.6285 5.1945,-1.113 7.584,-2.013 1.476,3.7005 2.694,7.4295 4.4115,11.0415 22.035,46.36215 90.821999,58.12665 133.211999,36.37035 3.3735,-1.7313 7.386,-5.9805 11.16,-6.3264 -12.942,11.2341 -35.0865,18.48615 -51.9975,20.79855 -43.768499,5.985 -94.546499,-12.90375 -104.369999,-59.871 z m -12.3825,-72.6555 c -0.999,-0.462 -2.3235,-1.2915 -3.384,-1.509 -2.8575,-7.7415 -7.8705,-20.313 -11.826,-27.3255 -2.253,-0.8895 -4.473,-1.3845 -6.8415,-1.8585 2.2515,-16.65 12.8415,-38.943 24.7065,-51.243 l 0.6045,0.6255 c 1.095,6.1185 -23.8605,19.767 -5.2245,62.841 2.331,5.388 5.238,10.731 6.969,16.341 l 0.186,0.6195 c -1.755,0.3735 -3.4755,0.9765 -5.19,1.509 z m 166.354499,-202.0515 c -2.6175,-8.9535 -5.109,-35.0325 -5.739,-45.4575 6.2865,1.845 12.6075,2.6505 19.0845,3.483 2.3205,0.213 4.65,0.072 6.975,0 -1.554,4.1355 -18.354,39.807 -20.3205,41.9745 z m -279.425999,67.008 c -6.9435,-3.7035 -13.401,-8.271 -20.1945,-12.2415 1.053,-1.2525 6.537,-9.3315 7.434,-9.6555 6.447,4.4955 13.1265,8.406 19.8645,12.4275 -0.7815,1.125 -6.615,9.3 -7.104,9.4695 z"
         id="path845"
         style="stroke-width:1.5" /><path
         fill="#e7cfc4"
         d="m -236.39746,660.59926 13.434,-1.566 c -1.152,-2.853 -2.226,-5.775 -3.756,-8.4495 -2.4555,-0.6165 -4.875,-1.149 -7.377,-1.533 0.1575,3.5865 -1.3425,8.0865 -2.301,11.5485 z"
         id="path847"
         style="stroke-width:1.5" /><path
         fill="#be7d68"
         d="m -219.87796,365.77876 0.525,-0.288 c 2.9625,-5.7015 4.239,-18.4125 4.6875,-25.0395 -4.1235,1.9965 -8.079,4.4115 -12.054,6.6855 -4.4145,2.7165 -8.8305,5.8035 -12.3825,9.5925 6.009,3.456 12.63,6.894 19.224,9.0495 z"
         id="path849"
         style="stroke-width:1.5" /><path
         fill="#be7d68"
         d="m -208.05196,580.69276 c 8.9115,-9.5115 17.6535,-18.003 27.8295,-26.2485 -3.726,-4.89 -7.9365,-9.4665 -12.063,-14.0205 -5.1735,13.1625 -11.2005,26.3205 -17.6085,38.931 0.6585,0.3945 1.2375,0.867 1.842,1.338 z"
         id="path851"
         style="fill:#a89a8c;fill-opacity:1;stroke-width:1.5" /><path
         fill="#e7cfc4"
         d="m -239.10196,564.35926 c -4.2555,9.333 -4.698,23.136 -6.348,33.312 -2.892,17.829 -11.0265,31.299 7.284,43.869 5.1285,-23.079 14.139,-43.2225 30.114,-60.8475 -0.6045,-0.471 -1.1835,-0.9435 -1.842,-1.338 -6.8805,5.211 -23.8755,-10.764 -29.208,-14.9955 z"
         id="path853"
         style="fill:#a89a8c;fill-opacity:1;stroke-width:1.5" /><path
         fill="#e7cfc4"
         d="m -293.79796,458.11876 c 5.4405,1.4205 11.1285,2.2605 16.6575,3.297 27.45,5.151 38.5845,4.5195 49.308,-24.51 -24.276,17.709 -26.2755,14.6265 -53.1045,9.4845 -3.939,-0.7545 -15.99,-1.437 -15.0555,-7.716 1.677,-11.25 34.1355,4.89 44.91,0.7665 6.657,-2.5485 25.47,-16.71 30.264,-22.5825 6.0045,-7.3545 3.8835,-17.262 0.9405,-25.53 -5.6925,12.5565 -14.3715,33.327 -30.945,32.754 -4.3605,-0.1515 -25.653,-3.8025 -29.082,-5.478 -4.206,-2.055 -3.6225,-8.7525 1.1775,-9.5775 6.432,-1.1055 22.863,6.5535 31.119,4.3275 9.2385,-2.49 21.2055,-30.252 24.645,-38.2635 -8.301,-1.8255 -15.4515,-6.1575 -23.256,-9.312 -0.8985,1.482 -15.2625,27.1665 -17.91,13.1325 -0.876,-4.6425 5.514,-12.453 7.965,-16.3485 -5.172,-9.843 -13.9875,-30.1065 -24.888,-33.5295 -10.8,-3.39 -27.6405,-3.102 -36.0495,5.8995 0.468,3.0855 -0.222,6.69 -0.45,9.8145 -1.098,14.952 1.653,29.4225 3.0525,44.2575 l 2.583,26.7465 c 1.515,16.9035 0.936,32.253 17.7885,41.46 l 0.3045,0.648 0.1365,-0.2295 z"
         id="path855"
         style="stroke-width:1.5" /><path
         fill="#be7d68"
         d="m -184.70146,741.01726 c 1.476,3.7005 2.694,7.4295 4.4115,11.0415 22.035,46.36215 90.821999,58.12665 133.211999,36.37035 3.3735,-1.7313 7.386,-5.9805 11.16,-6.3264 7.8285,-4.9878 13.3185,-15.83445 20.1375,-22.01145 4.086,-1.656 8.4375,-1.953 12.669,-3.042 51.771,-13.3365 44.169,-110.3115 -41.457,-77.4795 -26.175,10.035 -46.938,28.5915 -60.878999,52.6575 -11.1345,19.2195 -9.5325,11.454 -15.1245,-3.93 -8.0955,-22.269 -26.6415,-37.6755 -50.9805,-35.3745 4.101,17.5245 4.098,37.818 -13.149,48.0945 z"
         id="path857"
         style="fill:#332d2a;fill-opacity:1;stroke-width:1.5" /><path
         fill="#4a251e"
         d="m -132.91396,328.23376 c 10.119,0.3165 47.881499,-0.558 55.052999,-6.081 3.045,-2.346 1.416,-7.476 -2.1495,-8.3145 -1.773,-0.417 -18.8475,2.961 -23.204999,3.381 -15.285,1.476 -30.5955,0.8745 -45.8565,-0.5955 -18.2565,-3.5955 -27.003,-5.7135 -44.7885,-11.916 -2.94,1.344 -7.0155,4.218 -4.212,7.8585 7.479,9.711 49.605,13.929 65.1585,15.6675 z"
         id="path859"
         style="stroke-width:1.5" /><path
         fill="#4a251e"
         d="m -136.88146,358.25476 c 14.3715,0.0495 83.138999,-0.615 70.063499,-14.5875 -3.1935,-3.4125 -8.9085,-0.558 -12.594,0.348 -15.528,3.8175 -31.238999,4.5075 -47.173499,4.491 -15.855,0.1665 -32.1045,-1.9605 -47.4705,-5.829 -4.155,-1.0455 -13.9305,-6.3435 -17.9295,-3.528 -17.3265,12.204 48.237,18.4635 55.104,19.1055 z"
         id="path861"
         style="stroke-width:1.5" /><path
         fill="#e7cfc4"
         d="m -210.95296,679.16476 c -9.6975,13.7985 -5.4225,41.352 8.661,51.012 16.7655,11.5005 26.3625,-13.2945 23.0085,-27.636 -2.8935,-12.363 -10.377,-16.17 6.561,-18.9735 28.1715,-4.6635 50.601,15.612 61.1325,39.762 24.706499,-35.0565 52.460999,-56.487 97.418999,-60.939 -23.8755,-44.4945 -69.9015,-95.5185 -118.307999,-110.0085 -11.0295,-3.303 -19.7625,-2.4345 -29.928,3.0465 -9.7545,5.2605 -33.1005,23.088 -39.606,33.0105 l 0.6045,0.6255 c 1.095,6.1185 -23.8605,19.767 -5.2245,62.841 2.331,5.388 5.238,10.731 6.969,16.341 l 0.186,0.6195 c -1.755,0.3735 -3.4755,0.9765 -5.19,1.509 0.5625,5.436 -1.3875,7.0935 -6.285,8.79 z"
         id="path863"
         style="stroke-width:1.5" /><path
         fill="#a9b859"
         d="m -271.93996,626.28676 c 2.6145,-19.809 5.5575,-39.534 8.8815,-59.2425 1.029,-6.0975 0.5385,-24.4245 8.7345,-23.514 4.656,0.5175 31.5855,21.651 38.7945,25.4925 4.173,-9.177 8.682,-18.24 12.6765,-27.4905 1.728,-4.0035 4.0575,-18.06 10.6335,-15.036 4.749,2.184 15.6795,17.3865 20.667,21.9315 17.019,-8.286 26.5995,-10.9035 45.183,-4.455 31.553999,10.95 59.731499,34.707 82.316999,58.725 37.848,-15.4485 56.5875,-46.977 74.6475,-81.432 l 37.671,-73.6185 c 11.133,-21.417 24.7725,-44.079 14.5065,-68.8875 -12.327,-29.7885 -37.698,-29.5905 -65.196,-32.64 -16.527,-1.833 -33.1065,-3.471 -49.5885,-5.6685 4.401,9.8415 19.8735,28.947 16.2315,38.4015 -4.5105,4.2945 -13.197,5.1735 -19.209,6.594 -36.0285,8.517 -99.112499,15.7875 -136.562999,7.2105 17.2335,9.81 26.82,8.5335 46.0305,10.7385 l 111.010499,14.1435 c 16.0515,2.067 33.156,6.5415 48.486,-0.8655 1.941,-0.9375 4.2015,-3.0675 6.2715,-3.384 11.7075,-1.7895 7.2345,24.468 -47.502,14.853 l -19.362,38.5245 c -3.192,6.2445 -6.069,13.4535 -10.3545,18.999 0.69,7.266 8.5785,45.216 -0.5685,45.3795 -7.0635,0.126 -7.068,-27.6495 -7.611,-32.298 l -5.325,-43.9335 c -1.2195,-10.6245 -2.1405,-21.3585 -3.6,-31.9485 -19.1895,-2.1705 -38.2755,-5.25 -57.451499,-7.545 l -28.3425,-3.39 c -16.1385,-1.938 -29.454,-3.6375 -42.012,-15.138 -10.467,-9.5865 -14.4375,-8.088 -29.07,-10.758 4.9815,14.298 8.037,33.5445 -7.737,42.108 5.403,20.559 -21.282,52.9905 -44.772,45.2925 -3.9195,5.2365 -7.2795,10.8825 -10.986,16.2735 l -23.859,34.6665 c -3.8895,5.7705 -10.926,19.6455 -17.0055,22.8135 -5.991,-0.996 -30.5415,-16.6125 -32.916,-20.127 -3.693,-5.466 10.947,-22.023 14.184,-26.7945 7.8525,-11.5725 15.8565,-23.1765 23.409,-34.944 -22.0785,-11.6565 -19.7505,-34.0275 -22.302,-55.4685 -12.6045,3.2085 -25.4055,5.364 -38.0835,8.229 l 16.6665,57.669 c 1.6605,5.937 4.227,11.9835 5.2995,18.045 0.7605,4.29 -4.9905,7.0305 -8.2185,4.3185 -2.8845,-2.4255 -21.105,-70.5585 -23.4285,-77.898 l -28.722,6.12 c -4.3605,0.9315 -25.5981,7.9035 -21.8511,-3.9375 4.4121,-4.731 24.1656,-6.558 30.8121,-8.061 l 40.338,-8.7105 c 9.039,-1.956 18.0735,-4.212 27.1875,-5.772 -2.8965,-7.9455 -5.8185,-35.1435 -5.0805,-43.7475 0.867,-10.1205 5.0145,-17.5035 10.7145,-25.6005 -17.2365,-1.3875 -34.5495,-0.4485 -51.8205,-0.8385 -26.811,-0.606 -66.5409,-7.1145 -85.3902,15.444 -0.16365,3.2025 -2.46105,7.4295 -3.5076,10.5525 -9.9945,29.82 4.95975,61.464 15.65295,88.9365 11.30085,29.034 23.00685,57.9795 32.95785,87.5145 3.6465,10.827 5.5305,21.45 12.243,30.9945 31.083,44.2005 70.656,58.7955 122.0505,61.491 4.2135,0.2205 8.8185,0.0255 12.9405,0.741 z"
         id="path865"
         style="fill:#cc3300;fill-opacity:1;stroke-width:1.5" /></g></g></svg>
